<svg width="83" height="102" viewBox="0 0 83 102" fill="none" xmlns="http://www.w3.org/2000/svg">
	<path fill-rule="evenodd" clip-rule="evenodd" d="M55.0316 22.7083L42.0404 22.7626L29.0495 22.8169L36.9043 30.2873L44.7595 37.7578L57.7507 37.7035L70.7416 37.6488L62.8867 30.1787L55.0316 22.7083Z" />
	<path d="M65.4714 38.314L82 56.3037L70.2796 59.0291L65.4714 38.314Z" />
	<path fill-rule="evenodd" clip-rule="evenodd" d="M61.8755 75.9503V82.0158V88.0813H70.1055H78.3356V82.0158V75.9503H70.1055H61.8755Z" />
	<path fill-rule="evenodd" clip-rule="evenodd" d="M69.2998 70.5351V73.1092V75.6837H72.5416H75.7831V73.1092V70.5351H72.5416H69.2998Z" />
	<path d="M49.0824 16.4312L69.4808 16.4416L59.7788 25.7594L49.0824 16.4312Z" />
	<path d="M5.45298 31.4542L54.8317 1L55.0708 12.1494L5.45298 31.4542Z" />
	<path fill-rule="evenodd" clip-rule="evenodd" d="M61.8833 68.1371V71.9104V75.6837H65.4584H69.0338V71.9104V68.1371H65.4584H61.8833Z" />
	<path d="M66.5813 67.2918L77.7365 63.5036L77.7316 67.2973L66.5813 67.2918Z" />
	<path d="M66.5813 67.3025L78.1594 71.091L78.1539 67.2973L66.5813 67.3025Z" />
	<path fill-rule="evenodd" clip-rule="evenodd" d="M73.6771 58.4613L70.3865 58.4805L67.0957 58.4997L69.0855 61.1441L71.0752 63.7885L74.3658 63.7693L77.6566 63.7501L75.6668 61.1057L73.6771 58.4613Z" />
	<path d="M55.4948 45.3764L62.0924 40.9125L62.0895 45.3826L55.4948 45.3764Z" />
	<path fill-rule="evenodd" clip-rule="evenodd" d="M52.4135 38.169V38.9269V39.6851H58.3812H64.3492V38.9269V38.169H58.3812H52.4135Z" />
	<path d="M41.3741 44.1591L72.8044 48.8356L63.1843 61.2887L41.3741 44.1591Z" />
	<path d="M29.6523 61.9228L26.0035 24.0069L32.6349 27.0892L29.6523 61.9228V61.9228Z" />
	<path d="M35.4528 92.1897L12.6198 31.8376L22.3706 32.6839L35.4528 92.1897V92.1897Z" />
	<path d="M36.6063 100.76L3.99997 45.0857L13.7546 44.2862L36.6063 100.76V100.76Z" />
	<path fill-rule="evenodd" clip-rule="evenodd" d="M61.4092 60.8996L61.3309 72.4482L61.2526 83.9969L50.5136 77.0138L39.7744 70.0311L39.8527 58.4825L39.9309 46.9338L50.6699 53.9165L61.4092 60.8996Z" />
	<path fill-rule="evenodd" clip-rule="evenodd" d="M67.0005 38.169V38.9269V39.6851H69.1098H71.2191V38.9269V38.169H69.1098H67.0005Z" />
	<path fill-rule="evenodd" clip-rule="evenodd" d="M39.7059 57.4609L34.8977 57.4414L30.0897 57.4222L32.4853 65.828L34.8811 74.2342L37.2935 65.8475L39.7059 57.4609Z" />
</svg>
