<svg width="24" height="24" viewBox="0 0 24 24" fill="none" xmlns="http://www.w3.org/2000/svg">
	<path d="M15.6104 7.89054C15.4154 7.695 15.0989 7.69455 14.9033 7.88953C14.7078 8.08452 14.7073 8.4011 14.9023 8.59664L15.6104 7.89054ZM19.7436 12.7436L20.0976 13.0966C20.2922 12.9015 20.2922 12.5857 20.0976 12.3905L19.7436 12.7436ZM14.9023 16.8905C14.7073 17.0861 14.7078 17.4027 14.9033 17.5976C15.0989 17.7926 15.4154 17.7922 15.6104 17.5966L14.9023 16.8905ZM14.9023 8.59664L19.3895 13.0966L20.0976 12.3905L15.6104 7.89054L14.9023 8.59664ZM19.3895 12.3905L14.9023 16.8905L15.6104 17.5966L20.0976 13.0966L19.3895 12.3905Z"/>
	<path d="M4.25638 12.7436H17.3814L19.2564 12.7436" stroke-linecap="round"/>
</svg>
