<svg width="154" height="43" viewBox="0 0 154 43" fill="none" xmlns="http://www.w3.org/2000/svg">
<path fill-rule="evenodd" clip-rule="evenodd" d="M74.1564 10.7145C72.5071 6.3488 58.5612 -0.0498106 50.2081 1.1464C39.7474 2.69972 34.929 7.72242 42.4052 11.5087C35.7906 9.10145 19.2868 7.03025 10.3414 15.4168C4.78854 21.6644 20.5133 25.573 25.3238 25.1109C16.1189 24.5156 -6.55997 34.6965 3.53798 39.8825C15.9802 45.1538 44.4809 39.4536 45.7324 35.0507C42.9558 41.4891 74.6226 42.7252 75.406 33.7767C73.1459 37.9722 95.7402 42.4374 106.482 40.7291C119.944 38.9628 118.326 33 116.733 31.1819C127.088 31.8183 143.301 33.3965 150.483 27.6737C155.49 22.2658 152.513 16.2255 146.069 14.3255C139.047 12.5289 131.375 12.6225 122.427 15.6657C129.527 13.1805 125.148 5.16631 118.032 3.40575C109.921 1.4062 100.177 1.01596 91.4256 1.98816C84.2145 2.60924 72.8025 5.87933 74.1564 10.7145Z" fill="#FFFFFF" stroke="black" stroke-width="1.25" stroke-linejoin="round"/>
</svg>
