<svg width="81" height="91" viewBox="0 0 81 91" fill="none" xmlns="http://www.w3.org/2000/svg">
<path d="M54.552 9.91304C57.9946 8.60869 64.9328 4.85217 65.1446 0.260864" stroke="black" stroke-width="2"/>
<path d="M60.9076 31.3043C64.0854 31.6522 71.4473 31.513 75.4725 28.1739C79.4976 24.8348 80.1509 20.6956 79.9743 19.0435" stroke="black" stroke-width="2"/>
<path d="M40.5168 64.4348C41.4878 66.3478 49.2557 80.8695 36.8094 90" stroke="black" stroke-width="2"/>
<path d="M26.7464 58.174C26.9229 59.7392 26.2697 65.4783 22.2445 75.9131C18.2193 86.3479 14.7414 89.3044 13.5056 89.4783" stroke="black" stroke-width="2"/>
<path d="M8.88676 27.1563C8.16688 31.6002 7.24835 36.0563 9.36334 40.3023C10.6877 42.9611 12.0984 45.9697 13.9404 48.3231C18.3485 53.9552 24.0721 57.7681 30.3111 61.0823C39.055 65.727 60.2149 67.3549 62.4454 54.9566C63.1064 51.2824 62.416 48.5022 61.4296 45.4541C60.0449 41.1752 58.5074 36.7553 56.4146 32.7748C51.8275 24.0505 46.5952 16.6157 38.0411 11.3069C32.8872 8.10833 24.1104 6.33882 18.7137 9.88595C15.5124 11.9901 12.7643 14.9223 10.9089 18.2441C8.54384 22.4782 8.5307 26.8222 8.64724 31.5542" stroke="black" stroke-width="2" stroke-linecap="round"/>
</svg>
